<svg id="Layer_1" data-name="Layer 1" xmlns="http://www.w3.org/2000/svg" viewBox="0 0 631.78 655.19"><defs><style>.cls-1{fill:#3d7bcc;}.cls-2{fill:#ef8354;}</style></defs><title>Heaplay</title><path class="cls-1" d="M642.7,369.37,140.05,79.52l.31,580.24c0,4.76,3.38,6.71,7.5,4.32L642.71,378C646.83,375.65,646.83,371.75,642.7,369.37Z" transform="translate(-14.01 -9.91)"/><path class="cls-1" d="M524.17,302,21.52,10.94C17.39,8.55,14,10.49,14,15.27l.31,574.09c0,4.77,3.38,6.72,7.51,4.32Z" transform="translate(-14.01 -9.91)"/><path class="cls-2" d="M468,359,181.12,193.54l.17,331.21c0,4.76,3.38,6.71,7.51,4.32L468,367.65C472.17,365.27,472.16,361.37,468,359Z" transform="translate(-14.01 -9.91)"/><path class="cls-2" d="M402.8,322,115.89,155.8c-4.13-2.39-7.51-.44-7.51,4.33l.18,324c0,4.77,3.38,6.72,7.51,4.32Z" transform="translate(-14.01 -9.91)"/></svg>